<svg xmlns="http://www.w3.org/2000/svg" viewBox="0 0 100 100" preserveAspectRatio="xMidYMid" width="217" height="217" style="shape-rendering: auto; display: block; background: transparent;" xmlns:xlink="http://www.w3.org/1999/xlink"><g><g transform="rotate(0 50 50)">
  <rect fill="#31577c" height="13" width="3" ry="3.77" rx="1.5" y="14.5" x="48.5">
    <animate repeatCount="indefinite" begin="-0.7957559681697611s" dur="0.8620689655172413s" keyTimes="0;1" values="1;0" attributeName="opacity"></animate>
  </rect>
</g><g transform="rotate(27.692307692307693 50 50)">
  <rect fill="#31577c" height="13" width="3" ry="3.77" rx="1.5" y="14.5" x="48.5">
    <animate repeatCount="indefinite" begin="-0.729442970822281s" dur="0.8620689655172413s" keyTimes="0;1" values="1;0" attributeName="opacity"></animate>
  </rect>
</g><g transform="rotate(55.38461538461539 50 50)">
  <rect fill="#31577c" height="13" width="3" ry="3.77" rx="1.5" y="14.5" x="48.5">
    <animate repeatCount="indefinite" begin="-0.663129973474801s" dur="0.8620689655172413s" keyTimes="0;1" values="1;0" attributeName="opacity"></animate>
  </rect>
</g><g transform="rotate(83.07692307692308 50 50)">
  <rect fill="#31577c" height="13" width="3" ry="3.77" rx="1.5" y="14.5" x="48.5">
    <animate repeatCount="indefinite" begin="-0.5968169761273209s" dur="0.8620689655172413s" keyTimes="0;1" values="1;0" attributeName="opacity"></animate>
  </rect>
</g><g transform="rotate(110.76923076923077 50 50)">
  <rect fill="#31577c" height="13" width="3" ry="3.77" rx="1.5" y="14.5" x="48.5">
    <animate repeatCount="indefinite" begin="-0.5305039787798408s" dur="0.8620689655172413s" keyTimes="0;1" values="1;0" attributeName="opacity"></animate>
  </rect>
</g><g transform="rotate(138.46153846153845 50 50)">
  <rect fill="#31577c" height="13" width="3" ry="3.77" rx="1.5" y="14.5" x="48.5">
    <animate repeatCount="indefinite" begin="-0.4641909814323607s" dur="0.8620689655172413s" keyTimes="0;1" values="1;0" attributeName="opacity"></animate>
  </rect>
</g><g transform="rotate(166.15384615384616 50 50)">
  <rect fill="#31577c" height="13" width="3" ry="3.77" rx="1.5" y="14.5" x="48.5">
    <animate repeatCount="indefinite" begin="-0.39787798408488056s" dur="0.8620689655172413s" keyTimes="0;1" values="1;0" attributeName="opacity"></animate>
  </rect>
</g><g transform="rotate(193.84615384615384 50 50)">
  <rect fill="#31577c" height="13" width="3" ry="3.77" rx="1.5" y="14.5" x="48.5">
    <animate repeatCount="indefinite" begin="-0.3315649867374005s" dur="0.8620689655172413s" keyTimes="0;1" values="1;0" attributeName="opacity"></animate>
  </rect>
</g><g transform="rotate(221.53846153846155 50 50)">
  <rect fill="#31577c" height="13" width="3" ry="3.77" rx="1.5" y="14.5" x="48.5">
    <animate repeatCount="indefinite" begin="-0.2652519893899204s" dur="0.8620689655172413s" keyTimes="0;1" values="1;0" attributeName="opacity"></animate>
  </rect>
</g><g transform="rotate(249.23076923076923 50 50)">
  <rect fill="#31577c" height="13" width="3" ry="3.77" rx="1.5" y="14.5" x="48.5">
    <animate repeatCount="indefinite" begin="-0.19893899204244028s" dur="0.8620689655172413s" keyTimes="0;1" values="1;0" attributeName="opacity"></animate>
  </rect>
</g><g transform="rotate(276.9230769230769 50 50)">
  <rect fill="#31577c" height="13" width="3" ry="3.77" rx="1.5" y="14.5" x="48.5">
    <animate repeatCount="indefinite" begin="-0.1326259946949602s" dur="0.8620689655172413s" keyTimes="0;1" values="1;0" attributeName="opacity"></animate>
  </rect>
</g><g transform="rotate(304.61538461538464 50 50)">
  <rect fill="#31577c" height="13" width="3" ry="3.77" rx="1.5" y="14.5" x="48.5">
    <animate repeatCount="indefinite" begin="-0.0663129973474801s" dur="0.8620689655172413s" keyTimes="0;1" values="1;0" attributeName="opacity"></animate>
  </rect>
</g><g transform="rotate(332.3076923076923 50 50)">
  <rect fill="#31577c" height="13" width="3" ry="3.77" rx="1.5" y="14.5" x="48.5">
    <animate repeatCount="indefinite" begin="0s" dur="0.8620689655172413s" keyTimes="0;1" values="1;0" attributeName="opacity"></animate>
  </rect>
</g><g></g></g><!-- [ldio] generated by https://loading.io --></svg>